<?xml version="1.0" encoding="utf-8"?>
<!-- Generator: Adobe Illustrator 19.2.1, SVG Export Plug-In . SVG Version: 6.00 Build 0)  -->
<svg version="1.1" id="Layer_1" xmlns="http://www.w3.org/2000/svg" xmlns:xlink="http://www.w3.org/1999/xlink" x="0px" y="0px"
	 viewBox="0 0 728.5 1031.8" style="enable-background:new 0 0 728.5 1031.8;" xml:space="preserve">
<style type="text/css">
	.st0{stroke:#000000;stroke-miterlimit:10;}
	.st1{fill:#4AC7EE;stroke:#000000;stroke-miterlimit:10;}
	.st2{display:none;fill:#FFFFFF;}
	.st3{font-family:'OratorStd';}
	.st4{font-size:72px;}
	.st5{fill:#FFFFFF;stroke:#F8F7F8;stroke-miterlimit:10;}
	.st6{fill:#F7F2F3;}
	.st7{font-size:36px;}
</style>
<rect class="st0" width="728.5" height="1031.8"/>
<polygon class="st1" points="287.3,521.3 369.6,378.8 451.9,521.3 "/>
<text transform="matrix(1 0 0 1 171.7313 689)" class="st2 st3 st4">TRIALOGUE</text>
<line class="st5" x1="287.3" y1="521.3" x2="0" y2="521.3"/>
<line class="st5" x1="451.9" y1="521.3" x2="738" y2="521.3"/>
<line class="st5" x1="451.9" y1="521.3" x2="738" y2="920"/>
<line class="st5" x1="-100" y1="943" x2="-99" y2="943"/>
<line class="st5" x1="287.3" y1="521.3" x2="-5.9" y2="919.4"/>
<line class="st5" x1="97.9" y1="0" x2="369.6" y2="378.8"/>
<line class="st5" x1="648.6" y1="0" x2="369.6" y2="378.8"/>
<text transform="matrix(1 0 0 1 228 156)" class="st6 st3 st7">THE DEVELOPER</text>
<text transform="matrix(0.5864 -0.81 0.81 0.5864 56.0207 775.6354)" class="st6 st3 st7">THE PLAYER</text>
<text transform="matrix(0.5874 0.8093 -0.8093 0.5874 537.9546 585.3101)" class="st6 st3 st7">THE CRITIC</text>
</svg>
